# This file uses centimeters as units for non-parametric coordinates.

v -0.920250 -1.529166 -0.608756
v -0.087389 -1.529166 -0.932976
v -0.920250 -0.538366 -0.608756
v -0.087389 -0.538366 -0.932976
v -1.244470 -0.538366 -1.441617
v -0.411609 -0.538366 -1.765837
v -1.244470 -1.529166 -1.441617
v -0.411609 -1.529166 -1.765837
vt 0.375000 0.000000
vt 0.625000 0.000000
vt 0.375000 0.250000
vt 0.625000 0.250000
vt 0.375000 0.500000
vt 0.625000 0.500000
vt 0.375000 0.750000
vt 0.625000 0.750000
vt 0.875000 0.000000
vt 0.875000 0.250000
vt 0.125000 0.000000
vt 0.125000 0.250000
vn 0.362767 0.000000 0.931880
vn 0.362767 0.000000 0.931880
vn 0.362767 0.000000 0.931880
vn 0.362767 0.000000 0.931880
vn 0.000000 1.000000 0.000000
vn 0.000000 1.000000 0.000000
vn 0.000000 1.000000 0.000000
vn 0.000000 1.000000 0.000000
vn -0.362767 0.000000 -0.931880
vn -0.362767 0.000000 -0.931880
vn -0.362767 0.000000 -0.931880
vn -0.362767 0.000000 -0.931880
vn 0.931880 0.000000 -0.362767
vn 0.931880 0.000000 -0.362767
vn 0.931880 0.000000 -0.362767
vn 0.931880 0.000000 -0.362767
vn -0.931880 0.000000 0.362767
vn -0.931880 0.000000 0.362767
vn -0.931880 0.000000 0.362767
vn -0.931880 0.000000 0.362767
s off
f 1/1/1 2/2/2 4/4/3 3/3/4
f 6/6/5 5/5/6 3/3/7 4/4/8
f 5/5/9 6/6/10 8/8/11 7/7/12
f 6/10/13 4/4/14 2/2/15 8/9/16
f 3/3/17 5/12/18 7/11/19 1/1/20
